{
  "accessors": [
    {
      "bufferView": 0,
      "componentType": 5126,
      "count": 24,
      "type": "VEC3",
      "max": [
        0.3,
        0.3,
        0.3
      ],
      "min": [
        -0.3,
        -0.3,
        -0.3
      ],
      "name": "Positions Accessor"
    },
    {
      "bufferView": 1,
      "componentType": 5126,
      "count": 24,
      "type": "VEC3",
      "name": "Normals Accessor"
    },
    {
      "bufferView": 2,
      "componentType": 5126,
      "count": 24,
      "type": "VEC2",
      "name": "UV Accessor 0"
    },
    {
      "bufferView": 3,
      "componentType": 5125,
      "count": 36,
      "type": "SCALAR",
      "name": "Indices Accessor"
    }
  ],
  "asset": {
    "generator": "glTF Asset Generator",
    "version": "2.0"
  },
  "buffers": [
    {
      "uri": "SparseAccessors_00.bin",
      "byteLength": 912
    }
  ],
  "bufferViews": [
    {
      "buffer": 0,
      "byteLength": 288,
      "name": "Positions"
    },
    {
      "buffer": 0,
      "byteOffset": 288,
      "byteLength": 288,
      "name": "Normals"
    },
    {
      "buffer": 0,
      "byteOffset": 576,
      "byteLength": 192,
      "name": "Texture Coords 0"
    },
    {
      "buffer": 0,
      "byteOffset": 768,
      "byteLength": 144,
      "name": "Indices"
    }
  ],
  "meshes": [
    {
      "primitives": [
        {
          "attributes": {
            "POSITION": 0,
            "NORMAL": 1,
            "TEXCOORD_0": 2
          },
          "indices": 3
        }
      ]
    }
  ],
  "nodes": [
    {
      "mesh": 0
    }
  ],
  "scene": 0,
  "scenes": [
    {
      "nodes": [
        0
      ]
    }
  ]
}