{
  "accessors": [
    {
      "bufferView": 0,
      "componentType": 5126,
      "count": 1280,
      "type": "VEC3",
      "max": [
        1.0,
        0.5,
        0.0
      ],
      "min": [
        -0.5,
        -0.5,
        0.0
      ],
      "name": "Positions Accessor"
    }
  ],
  "asset": {
    "generator": "glTF Asset Generator",
    "version": "2.0"
  },
  "buffers": [
    {
      "uri": "Mesh_PrimitiveMode_00.bin",
      "byteLength": 15360
    }
  ],
  "bufferViews": [
    {
      "buffer": 0,
      "byteLength": 15360,
      "name": "Positions"
    }
  ],
  "meshes": [
    {
      "primitives": [
        {
          "attributes": {
            "POSITION": 0
          },
          "mode": 0
        }
      ]
    }
  ],
  "nodes": [
    {
      "mesh": 0
    }
  ],
  "scene": 0,
  "scenes": [
    {
      "nodes": [
        0
      ]
    }
  ]
}