{
  "accessors": [
    {
      "bufferView": 0,
      "componentType": 5126,
      "count": 3,
      "type": "VEC3",
      "max": [
        0.5,
        0.5,
        0.0
      ],
      "min": [
        -0.5,
        -0.5,
        0.0
      ],
      "name": "Positions Accessor"
    },
    {
      "bufferView": 1,
      "componentType": 5125,
      "count": 3,
      "type": "SCALAR",
      "name": "Indices Accessor"
    },
    {
      "bufferView": 2,
      "componentType": 5126,
      "count": 3,
      "type": "VEC4",
      "name": "Tangents Accessor"
    },
    {
      "bufferView": 3,
      "componentType": 5126,
      "count": 3,
      "type": "VEC2",
      "name": "UV Accessor 0"
    }
  ],
  "asset": {
    "generator": "glTF Asset Generator",
    "version": "2.0"
  },
  "buffers": [
    {
      "uri": "Mesh_PrimitivesUV_05.bin",
      "byteLength": 120
    }
  ],
  "bufferViews": [
    {
      "buffer": 0,
      "byteLength": 36,
      "name": "Positions"
    },
    {
      "buffer": 0,
      "byteOffset": 36,
      "byteLength": 12,
      "name": "Indices"
    },
    {
      "buffer": 0,
      "byteOffset": 48,
      "byteLength": 48,
      "name": "Tangents"
    },
    {
      "buffer": 0,
      "byteOffset": 96,
      "byteLength": 24,
      "name": "Texture Coords 0"
    }
  ],
  "images": [
    {
      "uri": "Textures/BaseColor_Plane.png"
    },
    {
      "uri": "Textures/Normal_Plane.png"
    }
  ],
  "materials": [
    {
      "pbrMetallicRoughness": {
        "baseColorTexture": {
          "index": 0,
          "texCoord": 1
        }
      },
      "normalTexture": {
        "index": 1,
        "texCoord": 1
      }
    }
  ],
  "meshes": [
    {
      "primitives": [
        {
          "attributes": {
            "POSITION": 0
          },
          "indices": 1
        },
        {
          "attributes": {
            "POSITION": 0,
            "NORMAL": 0,
            "TANGENT": 2,
            "COLOR_0": 2,
            "TEXCOORD_0": 3,
            "TEXCOORD_1": 3
          },
          "indices": 1,
          "material": 0
        }
      ]
    }
  ],
  "nodes": [
    {
      "mesh": 0
    }
  ],
  "scene": 0,
  "scenes": [
    {
      "nodes": [
        0
      ]
    }
  ],
  "textures": [
    {
      "source": 0
    },
    {
      "source": 1
    }
  ]
}