{
  "accessors": [
    {
      "bufferView": 0,
      "componentType": 5126,
      "count": 6,
      "type": "VEC3",
      "max": [
        0.25,
        0.5,
        0.0
      ],
      "min": [
        -0.25,
        -0.5,
        0.0
      ],
      "name": "Positions Accessor"
    },
    {
      "bufferView": 1,
      "componentType": 5126,
      "count": 6,
      "type": "VEC3",
      "name": "Colors Accessor"
    },
    {
      "bufferView": 2,
      "componentType": 5125,
      "count": 12,
      "type": "SCALAR",
      "name": "Indices Accessor"
    },
    {
      "bufferView": 3,
      "componentType": 5126,
      "count": 6,
      "type": "VEC4",
      "name": "weights accessor"
    },
    {
      "bufferView": 4,
      "componentType": 5123,
      "count": 6,
      "type": "VEC4",
      "name": "joint indices accessor"
    },
    {
      "bufferView": 5,
      "componentType": 5126,
      "count": 2,
      "type": "MAT4",
      "name": "IBM"
    },
    {
      "bufferView": 6,
      "componentType": 5126,
      "count": 3,
      "type": "VEC3",
      "max": [
        0.2,
        0.7,
        0.1
      ],
      "min": [
        -0.2,
        0.5,
        0.1
      ],
      "name": "Positions Accessor"
    },
    {
      "bufferView": 7,
      "componentType": 5126,
      "count": 3,
      "type": "VEC3",
      "name": "Colors Accessor"
    },
    {
      "bufferView": 8,
      "componentType": 5125,
      "count": 3,
      "type": "SCALAR",
      "name": "Indices Accessor"
    },
    {
      "bufferView": 9,
      "componentType": 5126,
      "count": 3,
      "type": "SCALAR",
      "max": [
        2.0
      ],
      "min": [
        0.0
      ],
      "name": "Animation Sampler Input"
    },
    {
      "bufferView": 10,
      "componentType": 5126,
      "count": 3,
      "type": "VEC4",
      "name": "Animation Sampler Output"
    }
  ],
  "animations": [
    {
      "channels": [
        {
          "sampler": 0,
          "target": {
            "node": 2,
            "path": "rotation"
          }
        }
      ],
      "samplers": [
        {
          "input": 9,
          "output": 10
        }
      ]
    }
  ],
  "asset": {
    "generator": "glTF Asset Generator",
    "version": "2.0"
  },
  "buffers": [
    {
      "uri": "Animation_Skin_05.bin",
      "byteLength": 608
    }
  ],
  "bufferViews": [
    {
      "buffer": 0,
      "byteLength": 72,
      "name": "Positions"
    },
    {
      "buffer": 0,
      "byteOffset": 72,
      "byteLength": 72,
      "name": "Colors"
    },
    {
      "buffer": 0,
      "byteOffset": 144,
      "byteLength": 48,
      "name": "Indices"
    },
    {
      "buffer": 0,
      "byteOffset": 192,
      "byteLength": 96,
      "name": "weights buffer view"
    },
    {
      "buffer": 0,
      "byteOffset": 288,
      "byteLength": 48,
      "name": "joint indices buffer view"
    },
    {
      "buffer": 0,
      "byteOffset": 336,
      "byteLength": 128,
      "name": "Inverse Bind Matrix"
    },
    {
      "buffer": 0,
      "byteOffset": 464,
      "byteLength": 36,
      "name": "Positions"
    },
    {
      "buffer": 0,
      "byteOffset": 500,
      "byteLength": 36,
      "name": "Colors"
    },
    {
      "buffer": 0,
      "byteOffset": 536,
      "byteLength": 12,
      "name": "Indices"
    },
    {
      "buffer": 0,
      "byteOffset": 548,
      "byteLength": 12,
      "name": "Animation Sampler Input"
    },
    {
      "buffer": 0,
      "byteOffset": 560,
      "byteLength": 48,
      "name": "Animation Sampler Output"
    }
  ],
  "materials": [
    {
      "doubleSided": true
    },
    {
      "doubleSided": true
    }
  ],
  "meshes": [
    {
      "primitives": [
        {
          "attributes": {
            "POSITION": 0,
            "COLOR_0": 1,
            "WEIGHTS_0": 3,
            "JOINTS_0": 4
          },
          "indices": 2,
          "material": 0
        }
      ]
    },
    {
      "primitives": [
        {
          "attributes": {
            "POSITION": 6,
            "COLOR_0": 7
          },
          "indices": 8,
          "material": 1
        }
      ]
    }
  ],
  "nodes": [
    {
      "skin": 0,
      "mesh": 0,
      "name": "plane"
    },
    {
      "children": [
        2
      ],
      "translation": [
        0.0,
        -0.5,
        0.0
      ],
      "name": "Joint0"
    },
    {
      "children": [
        3
      ],
      "translation": [
        0.0,
        0.5,
        0.0
      ],
      "name": "Joint1"
    },
    {
      "mesh": 1,
      "name": "triangle"
    }
  ],
  "scene": 0,
  "scenes": [
    {
      "nodes": [
        0,
        1
      ]
    }
  ],
  "skins": [
    {
      "inverseBindMatrices": 5,
      "joints": [
        1,
        2
      ]
    }
  ]
}