{
  "accessors": [
    {
      "bufferView": 0,
      "componentType": 5126,
      "count": 12,
      "type": "VEC3",
      "max": [
        0.5,
        0.6,
        0.0
      ],
      "min": [
        -0.5,
        -0.4,
        0.0
      ],
      "name": "Positions Accessor"
    },
    {
      "bufferView": 1,
      "componentType": 5126,
      "count": 12,
      "type": "VEC3",
      "name": "Normals Accessor"
    },
    {
      "bufferView": 2,
      "componentType": 5126,
      "count": 12,
      "type": "VEC3",
      "name": "Colors Accessor"
    },
    {
      "bufferView": 3,
      "componentType": 5125,
      "count": 30,
      "type": "SCALAR",
      "name": "Indices Accessor"
    },
    {
      "bufferView": 4,
      "componentType": 5126,
      "count": 12,
      "type": "VEC4",
      "name": "weights accessor"
    },
    {
      "bufferView": 5,
      "componentType": 5123,
      "count": 12,
      "type": "VEC4",
      "name": "joint indices accessor"
    },
    {
      "bufferView": 6,
      "componentType": 5126,
      "count": 5,
      "type": "MAT4",
      "name": "IBM"
    },
    {
      "bufferView": 7,
      "componentType": 5126,
      "count": 4,
      "type": "VEC3",
      "max": [
        0.5,
        0.5,
        0.0
      ],
      "min": [
        -0.5,
        -0.5,
        0.0
      ],
      "name": "Positions Accessor"
    },
    {
      "bufferView": 8,
      "componentType": 5126,
      "count": 4,
      "type": "VEC2",
      "name": "UV Accessor 0"
    },
    {
      "bufferView": 9,
      "componentType": 5125,
      "count": 6,
      "type": "SCALAR",
      "name": "Indices Accessor"
    },
    {
      "bufferView": 10,
      "componentType": 5126,
      "count": 3,
      "type": "SCALAR",
      "max": [
        2.0
      ],
      "min": [
        0.0
      ],
      "name": "Animation Sampler Input"
    },
    {
      "bufferView": 11,
      "componentType": 5126,
      "count": 3,
      "type": "VEC4",
      "name": "Animation Sampler Output"
    },
    {
      "bufferView": 12,
      "componentType": 5126,
      "count": 3,
      "type": "SCALAR",
      "max": [
        2.0
      ],
      "min": [
        0.0
      ],
      "name": "Animation Sampler Input"
    },
    {
      "bufferView": 13,
      "componentType": 5126,
      "count": 3,
      "type": "VEC4",
      "name": "Animation Sampler Output"
    },
    {
      "bufferView": 14,
      "componentType": 5126,
      "count": 3,
      "type": "SCALAR",
      "max": [
        2.0
      ],
      "min": [
        0.0
      ],
      "name": "Animation Sampler Input"
    },
    {
      "bufferView": 15,
      "componentType": 5126,
      "count": 3,
      "type": "VEC4",
      "name": "Animation Sampler Output"
    },
    {
      "bufferView": 16,
      "componentType": 5126,
      "count": 3,
      "type": "SCALAR",
      "max": [
        2.0
      ],
      "min": [
        0.0
      ],
      "name": "Animation Sampler Input"
    },
    {
      "bufferView": 17,
      "componentType": 5126,
      "count": 3,
      "type": "VEC4",
      "name": "Animation Sampler Output"
    }
  ],
  "animations": [
    {
      "channels": [
        {
          "sampler": 0,
          "target": {
            "node": 2,
            "path": "rotation"
          }
        },
        {
          "sampler": 1,
          "target": {
            "node": 3,
            "path": "rotation"
          }
        },
        {
          "sampler": 2,
          "target": {
            "node": 4,
            "path": "rotation"
          }
        },
        {
          "sampler": 3,
          "target": {
            "node": 5,
            "path": "rotation"
          }
        }
      ],
      "samplers": [
        {
          "input": 10,
          "output": 11
        },
        {
          "input": 12,
          "output": 13
        },
        {
          "input": 14,
          "output": 15
        },
        {
          "input": 16,
          "output": 17
        }
      ]
    }
  ],
  "asset": {
    "generator": "glTF Asset Generator",
    "version": "2.0"
  },
  "buffers": [
    {
      "uri": "Animation_Skin_11.bin",
      "byteLength": 1504
    }
  ],
  "bufferViews": [
    {
      "buffer": 0,
      "byteLength": 144,
      "name": "Positions"
    },
    {
      "buffer": 0,
      "byteOffset": 144,
      "byteLength": 144,
      "name": "Normals"
    },
    {
      "buffer": 0,
      "byteOffset": 288,
      "byteLength": 144,
      "name": "Colors"
    },
    {
      "buffer": 0,
      "byteOffset": 432,
      "byteLength": 120,
      "name": "Indices"
    },
    {
      "buffer": 0,
      "byteOffset": 552,
      "byteLength": 192,
      "name": "weights buffer view"
    },
    {
      "buffer": 0,
      "byteOffset": 744,
      "byteLength": 96,
      "name": "joint indices buffer view"
    },
    {
      "buffer": 0,
      "byteOffset": 840,
      "byteLength": 320,
      "name": "Inverse Bind Matrix"
    },
    {
      "buffer": 0,
      "byteOffset": 1160,
      "byteLength": 48,
      "name": "Positions"
    },
    {
      "buffer": 0,
      "byteOffset": 1208,
      "byteLength": 32,
      "name": "Texture Coords 0"
    },
    {
      "buffer": 0,
      "byteOffset": 1240,
      "byteLength": 24,
      "name": "Indices"
    },
    {
      "buffer": 0,
      "byteOffset": 1264,
      "byteLength": 12,
      "name": "Animation Sampler Input"
    },
    {
      "buffer": 0,
      "byteOffset": 1276,
      "byteLength": 48,
      "name": "Animation Sampler Output"
    },
    {
      "buffer": 0,
      "byteOffset": 1324,
      "byteLength": 12,
      "name": "Animation Sampler Input"
    },
    {
      "buffer": 0,
      "byteOffset": 1336,
      "byteLength": 48,
      "name": "Animation Sampler Output"
    },
    {
      "buffer": 0,
      "byteOffset": 1384,
      "byteLength": 12,
      "name": "Animation Sampler Input"
    },
    {
      "buffer": 0,
      "byteOffset": 1396,
      "byteLength": 48,
      "name": "Animation Sampler Output"
    },
    {
      "buffer": 0,
      "byteOffset": 1444,
      "byteLength": 12,
      "name": "Animation Sampler Input"
    },
    {
      "buffer": 0,
      "byteOffset": 1456,
      "byteLength": 48,
      "name": "Animation Sampler Output"
    }
  ],
  "materials": [
    {
      "doubleSided": true
    },
    {
      "doubleSided": true
    }
  ],
  "meshes": [
    {
      "primitives": [
        {
          "attributes": {
            "POSITION": 0,
            "NORMAL": 1,
            "COLOR_0": 2,
            "WEIGHTS_0": 4,
            "JOINTS_0": 5
          },
          "indices": 3,
          "material": 0
        }
      ]
    },
    {
      "primitives": [
        {
          "attributes": {
            "POSITION": 7,
            "TEXCOORD_0": 8
          },
          "indices": 9,
          "material": 1
        }
      ]
    }
  ],
  "nodes": [
    {
      "skin": 0,
      "mesh": 0,
      "name": "plane"
    },
    {
      "children": [
        2
      ],
      "translation": [
        0.0,
        -0.4,
        0.0
      ],
      "name": "rootNode"
    },
    {
      "children": [
        3
      ],
      "translation": [
        0.0,
        0.2,
        0.0
      ],
      "name": "rootMidNode"
    },
    {
      "children": [
        4
      ],
      "translation": [
        0.0,
        0.2,
        0.0
      ],
      "name": "midNode"
    },
    {
      "children": [
        5
      ],
      "translation": [
        0.0,
        0.2,
        0.0
      ],
      "name": "midTopNode"
    },
    {
      "children": [
        6
      ],
      "translation": [
        0.0,
        0.2,
        0.0
      ],
      "name": "topNode"
    },
    {
      "mesh": 1,
      "rotation": [
        0.707106769,
        0.0,
        0.0,
        0.707106769
      ],
      "scale": [
        0.5,
        0.5,
        0.5
      ],
      "translation": [
        0.0,
        0.2,
        0.0
      ],
      "name": "attachedPlane"
    }
  ],
  "scene": 0,
  "scenes": [
    {
      "nodes": [
        0,
        1
      ]
    }
  ],
  "skins": [
    {
      "inverseBindMatrices": 6,
      "joints": [
        1,
        2,
        3,
        4,
        5
      ]
    }
  ]
}