{
  "accessors": [
    {
      "bufferView": 0,
      "componentType": 5126,
      "count": 6,
      "type": "VEC3",
      "max": [
        0.25,
        0.0,
        0.2
      ],
      "min": [
        -0.25,
        0.0,
        -0.2
      ],
      "name": "Positions Accessor"
    },
    {
      "bufferView": 1,
      "componentType": 5126,
      "count": 6,
      "type": "VEC3",
      "name": "Colors Accessor"
    },
    {
      "bufferView": 2,
      "componentType": 5125,
      "count": 12,
      "type": "SCALAR",
      "name": "Indices Accessor"
    },
    {
      "bufferView": 3,
      "componentType": 5126,
      "count": 6,
      "type": "VEC4",
      "name": "weights accessor"
    },
    {
      "bufferView": 4,
      "componentType": 5123,
      "count": 6,
      "type": "VEC4",
      "name": "joint indices accessor"
    },
    {
      "bufferView": 5,
      "componentType": 5126,
      "count": 2,
      "type": "MAT4",
      "name": "IBM"
    }
  ],
  "asset": {
    "generator": "glTF Asset Generator",
    "version": "2.0"
  },
  "buffers": [
    {
      "uri": "Animation_Skin_00.bin",
      "byteLength": 464
    }
  ],
  "bufferViews": [
    {
      "buffer": 0,
      "byteLength": 72,
      "name": "Positions"
    },
    {
      "buffer": 0,
      "byteOffset": 72,
      "byteLength": 72,
      "name": "Colors"
    },
    {
      "buffer": 0,
      "byteOffset": 144,
      "byteLength": 48,
      "name": "Indices"
    },
    {
      "buffer": 0,
      "byteOffset": 192,
      "byteLength": 96,
      "name": "weights buffer view"
    },
    {
      "buffer": 0,
      "byteOffset": 288,
      "byteLength": 48,
      "name": "joint indices buffer view"
    },
    {
      "buffer": 0,
      "byteOffset": 336,
      "byteLength": 128,
      "name": "Inverse Bind Matrix"
    }
  ],
  "materials": [
    {
      "doubleSided": true
    }
  ],
  "meshes": [
    {
      "primitives": [
        {
          "attributes": {
            "POSITION": 0,
            "COLOR_0": 1,
            "WEIGHTS_0": 3,
            "JOINTS_0": 4
          },
          "indices": 2,
          "material": 0
        }
      ]
    }
  ],
  "nodes": [
    {
      "skin": 0,
      "mesh": 0,
      "name": "plane"
    },
    {
      "children": [
        2
      ],
      "rotation": [
        -0.7071067,
        0.0,
        0.0,
        0.707106769
      ],
      "translation": [
        0.0,
        -0.2,
        0.0
      ],
      "name": "joint0"
    },
    {
      "rotation": [
        -0.258819044,
        0.0,
        0.0,
        0.9659258
      ],
      "translation": [
        0.0,
        0.0,
        0.2
      ],
      "name": "joint1"
    }
  ],
  "scene": 0,
  "scenes": [
    {
      "nodes": [
        0,
        1
      ]
    }
  ],
  "skins": [
    {
      "inverseBindMatrices": 5,
      "joints": [
        1,
        2
      ],
      "name": "skinA"
    }
  ]
}