{
  "accessors": [
    {
      "bufferView": 0,
      "componentType": 5126,
      "count": 12,
      "type": "VEC3",
      "max": [
        0.5,
        1.0,
        0.0
      ],
      "min": [
        -0.5,
        0.0,
        0.0
      ],
      "name": "Positions Accessor"
    },
    {
      "bufferView": 1,
      "componentType": 5126,
      "count": 12,
      "type": "VEC3",
      "name": "Normals Accessor"
    },
    {
      "bufferView": 2,
      "componentType": 5126,
      "count": 12,
      "type": "VEC3",
      "name": "Colors Accessor"
    },
    {
      "bufferView": 3,
      "componentType": 5125,
      "count": 30,
      "type": "SCALAR",
      "name": "Indices Accessor"
    },
    {
      "bufferView": 4,
      "componentType": 5126,
      "count": 12,
      "type": "VEC4",
      "name": "weights accessor"
    },
    {
      "bufferView": 5,
      "componentType": 5123,
      "count": 12,
      "type": "VEC4",
      "name": "joint indices accessor"
    },
    {
      "bufferView": 6,
      "componentType": 5126,
      "count": 3,
      "type": "SCALAR",
      "max": [
        2.0
      ],
      "min": [
        0.0
      ],
      "name": "Animation Sampler Input"
    },
    {
      "bufferView": 7,
      "componentType": 5126,
      "count": 3,
      "type": "VEC4",
      "name": "Animation Sampler Output"
    },
    {
      "bufferView": 8,
      "componentType": 5126,
      "count": 3,
      "type": "SCALAR",
      "max": [
        2.0
      ],
      "min": [
        0.0
      ],
      "name": "Animation Sampler Input"
    },
    {
      "bufferView": 9,
      "componentType": 5126,
      "count": 3,
      "type": "VEC4",
      "name": "Animation Sampler Output"
    },
    {
      "bufferView": 10,
      "componentType": 5126,
      "count": 3,
      "type": "SCALAR",
      "max": [
        2.0
      ],
      "min": [
        0.0
      ],
      "name": "Animation Sampler Input"
    },
    {
      "bufferView": 11,
      "componentType": 5126,
      "count": 3,
      "type": "VEC4",
      "name": "Animation Sampler Output"
    },
    {
      "bufferView": 12,
      "componentType": 5126,
      "count": 3,
      "type": "SCALAR",
      "max": [
        2.0
      ],
      "min": [
        0.0
      ],
      "name": "Animation Sampler Input"
    },
    {
      "bufferView": 13,
      "componentType": 5126,
      "count": 3,
      "type": "VEC4",
      "name": "Animation Sampler Output"
    },
    {
      "bufferView": 14,
      "componentType": 5126,
      "count": 3,
      "type": "SCALAR",
      "max": [
        2.0
      ],
      "min": [
        0.0
      ],
      "name": "Animation Sampler Input"
    },
    {
      "bufferView": 15,
      "componentType": 5126,
      "count": 3,
      "type": "VEC4",
      "name": "Animation Sampler Output"
    }
  ],
  "animations": [
    {
      "channels": [
        {
          "sampler": 0,
          "target": {
            "node": 1,
            "path": "rotation"
          }
        },
        {
          "sampler": 1,
          "target": {
            "node": 2,
            "path": "rotation"
          }
        },
        {
          "sampler": 2,
          "target": {
            "node": 3,
            "path": "rotation"
          }
        },
        {
          "sampler": 3,
          "target": {
            "node": 4,
            "path": "rotation"
          }
        },
        {
          "sampler": 4,
          "target": {
            "node": 5,
            "path": "rotation"
          }
        }
      ],
      "samplers": [
        {
          "input": 6,
          "output": 7
        },
        {
          "input": 8,
          "output": 9
        },
        {
          "input": 10,
          "output": 11
        },
        {
          "input": 12,
          "output": 13
        },
        {
          "input": 14,
          "output": 15
        }
      ]
    }
  ],
  "asset": {
    "generator": "glTF Asset Generator",
    "version": "2.0"
  },
  "buffers": [
    {
      "uri": "Animation_Skin_02.bin",
      "byteLength": 1140
    }
  ],
  "bufferViews": [
    {
      "buffer": 0,
      "byteLength": 144,
      "name": "Positions"
    },
    {
      "buffer": 0,
      "byteOffset": 144,
      "byteLength": 144,
      "name": "Normals"
    },
    {
      "buffer": 0,
      "byteOffset": 288,
      "byteLength": 144,
      "name": "Colors"
    },
    {
      "buffer": 0,
      "byteOffset": 432,
      "byteLength": 120,
      "name": "Indices"
    },
    {
      "buffer": 0,
      "byteOffset": 552,
      "byteLength": 192,
      "name": "weights buffer view"
    },
    {
      "buffer": 0,
      "byteOffset": 744,
      "byteLength": 96,
      "name": "joint indices buffer view"
    },
    {
      "buffer": 0,
      "byteOffset": 840,
      "byteLength": 12,
      "name": "Animation Sampler Input"
    },
    {
      "buffer": 0,
      "byteOffset": 852,
      "byteLength": 48,
      "name": "Animation Sampler Output"
    },
    {
      "buffer": 0,
      "byteOffset": 900,
      "byteLength": 12,
      "name": "Animation Sampler Input"
    },
    {
      "buffer": 0,
      "byteOffset": 912,
      "byteLength": 48,
      "name": "Animation Sampler Output"
    },
    {
      "buffer": 0,
      "byteOffset": 960,
      "byteLength": 12,
      "name": "Animation Sampler Input"
    },
    {
      "buffer": 0,
      "byteOffset": 972,
      "byteLength": 48,
      "name": "Animation Sampler Output"
    },
    {
      "buffer": 0,
      "byteOffset": 1020,
      "byteLength": 12,
      "name": "Animation Sampler Input"
    },
    {
      "buffer": 0,
      "byteOffset": 1032,
      "byteLength": 48,
      "name": "Animation Sampler Output"
    },
    {
      "buffer": 0,
      "byteOffset": 1080,
      "byteLength": 12,
      "name": "Animation Sampler Input"
    },
    {
      "buffer": 0,
      "byteOffset": 1092,
      "byteLength": 48,
      "name": "Animation Sampler Output"
    }
  ],
  "meshes": [
    {
      "primitives": [
        {
          "attributes": {
            "POSITION": 0,
            "NORMAL": 1,
            "COLOR_0": 2,
            "WEIGHTS_0": 4,
            "JOINTS_0": 5
          },
          "indices": 3
        }
      ]
    }
  ],
  "nodes": [
    {
      "skin": 0,
      "mesh": 0,
      "name": "plane"
    },
    {
      "children": [
        2
      ],
      "name": "rootJoint"
    },
    {
      "children": [
        3
      ],
      "translation": [
        0.0,
        0.2,
        0.0
      ],
      "name": "rootMidJoint"
    },
    {
      "children": [
        4
      ],
      "translation": [
        0.0,
        0.2,
        0.0
      ],
      "name": "midJoint"
    },
    {
      "children": [
        5
      ],
      "translation": [
        0.0,
        0.2,
        0.0
      ],
      "name": "midTopJoint"
    },
    {
      "translation": [
        0.0,
        0.2,
        0.0
      ],
      "name": "topJoint"
    }
  ],
  "scene": 0,
  "scenes": [
    {
      "nodes": [
        0,
        1
      ]
    }
  ],
  "skins": [
    {
      "joints": [
        1,
        2,
        3,
        4,
        5
      ]
    }
  ]
}