{
  "accessors": [
    {
      "bufferView": 0,
      "componentType": 5126,
      "count": 12,
      "type": "VEC3",
      "max": [
        0.25,
        0.6,
        0.0
      ],
      "min": [
        -0.25,
        -0.4,
        0.0
      ],
      "name": "Positions Accessor"
    },
    {
      "bufferView": 1,
      "componentType": 5126,
      "count": 12,
      "type": "VEC3",
      "name": "Colors Accessor"
    },
    {
      "bufferView": 2,
      "componentType": 5125,
      "count": 30,
      "type": "SCALAR",
      "name": "Indices Accessor"
    },
    {
      "bufferView": 3,
      "componentType": 5126,
      "count": 12,
      "type": "VEC4",
      "name": "weights accessor"
    },
    {
      "bufferView": 4,
      "componentType": 5123,
      "count": 12,
      "type": "VEC4",
      "name": "joint indices accessor"
    },
    {
      "bufferView": 5,
      "componentType": 5126,
      "count": 4,
      "type": "MAT4",
      "name": "IBM"
    },
    {
      "bufferView": 6,
      "componentType": 5126,
      "count": 3,
      "type": "SCALAR",
      "max": [
        2.0
      ],
      "min": [
        0.0
      ],
      "name": "Animation Sampler Input"
    },
    {
      "bufferView": 7,
      "componentType": 5126,
      "count": 3,
      "type": "VEC4",
      "name": "Animation Sampler Output"
    },
    {
      "bufferView": 8,
      "componentType": 5126,
      "count": 3,
      "type": "SCALAR",
      "max": [
        2.0
      ],
      "min": [
        0.0
      ],
      "name": "Animation Sampler Input"
    },
    {
      "bufferView": 9,
      "componentType": 5126,
      "count": 3,
      "type": "VEC4",
      "name": "Animation Sampler Output"
    },
    {
      "bufferView": 10,
      "componentType": 5126,
      "count": 3,
      "type": "SCALAR",
      "max": [
        2.0
      ],
      "min": [
        0.0
      ],
      "name": "Animation Sampler Input"
    },
    {
      "bufferView": 11,
      "componentType": 5126,
      "count": 3,
      "type": "VEC4",
      "name": "Animation Sampler Output"
    }
  ],
  "animations": [
    {
      "channels": [
        {
          "sampler": 0,
          "target": {
            "node": 2,
            "path": "rotation"
          }
        },
        {
          "sampler": 1,
          "target": {
            "node": 3,
            "path": "rotation"
          }
        },
        {
          "sampler": 2,
          "target": {
            "node": 5,
            "path": "rotation"
          }
        }
      ],
      "samplers": [
        {
          "input": 6,
          "output": 7
        },
        {
          "input": 8,
          "output": 9
        },
        {
          "input": 10,
          "output": 11
        }
      ]
    }
  ],
  "asset": {
    "generator": "glTF Asset Generator",
    "version": "2.0"
  },
  "buffers": [
    {
      "uri": "Animation_Skin_05.bin",
      "byteLength": 1132
    }
  ],
  "bufferViews": [
    {
      "buffer": 0,
      "byteLength": 144,
      "name": "Positions"
    },
    {
      "buffer": 0,
      "byteOffset": 144,
      "byteLength": 144,
      "name": "Colors"
    },
    {
      "buffer": 0,
      "byteOffset": 288,
      "byteLength": 120,
      "name": "Indices"
    },
    {
      "buffer": 0,
      "byteOffset": 408,
      "byteLength": 192,
      "name": "weights buffer view"
    },
    {
      "buffer": 0,
      "byteOffset": 600,
      "byteLength": 96,
      "name": "joint indices buffer view"
    },
    {
      "buffer": 0,
      "byteOffset": 696,
      "byteLength": 256,
      "name": "Inverse Bind Matrix"
    },
    {
      "buffer": 0,
      "byteOffset": 952,
      "byteLength": 12,
      "name": "Animation Sampler Input"
    },
    {
      "buffer": 0,
      "byteOffset": 964,
      "byteLength": 48,
      "name": "Animation Sampler Output"
    },
    {
      "buffer": 0,
      "byteOffset": 1012,
      "byteLength": 12,
      "name": "Animation Sampler Input"
    },
    {
      "buffer": 0,
      "byteOffset": 1024,
      "byteLength": 48,
      "name": "Animation Sampler Output"
    },
    {
      "buffer": 0,
      "byteOffset": 1072,
      "byteLength": 12,
      "name": "Animation Sampler Input"
    },
    {
      "buffer": 0,
      "byteOffset": 1084,
      "byteLength": 48,
      "name": "Animation Sampler Output"
    }
  ],
  "materials": [
    {
      "doubleSided": true
    }
  ],
  "meshes": [
    {
      "primitives": [
        {
          "attributes": {
            "POSITION": 0,
            "COLOR_0": 1,
            "WEIGHTS_0": 3,
            "JOINTS_0": 4
          },
          "indices": 2,
          "material": 0
        }
      ]
    }
  ],
  "nodes": [
    {
      "skin": 0,
      "mesh": 0,
      "name": "plane"
    },
    {
      "children": [
        2
      ],
      "translation": [
        0.0,
        -0.4,
        0.0
      ],
      "name": "Joint0"
    },
    {
      "children": [
        3
      ],
      "translation": [
        0.0,
        0.2,
        0.0
      ],
      "name": "Joint1"
    },
    {
      "children": [
        4
      ],
      "translation": [
        0.0,
        0.2,
        0.0
      ],
      "name": "Joint2"
    },
    {
      "children": [
        5
      ],
      "translation": [
        0.0,
        0.2,
        0.0
      ],
      "name": "Joint3"
    },
    {
      "translation": [
        0.0,
        0.2,
        0.0
      ],
      "name": "Joint4"
    }
  ],
  "scene": 0,
  "scenes": [
    {
      "nodes": [
        0,
        1
      ]
    }
  ],
  "skins": [
    {
      "inverseBindMatrices": 5,
      "joints": [
        1,
        2,
        3,
        5
      ]
    }
  ]
}