{
  "accessors": [
    {
      "bufferView": 0,
      "componentType": 5126,
      "count": 6,
      "type": "VEC3",
      "max": [
        0.5,
        0.5,
        0.0
      ],
      "min": [
        -0.5,
        -0.5,
        0.0
      ],
      "name": "Positions Accessor"
    },
    {
      "bufferView": 1,
      "componentType": 5126,
      "count": 6,
      "type": "VEC3",
      "name": "Normals Accessor"
    },
    {
      "bufferView": 2,
      "componentType": 5126,
      "count": 6,
      "type": "VEC3",
      "name": "Colors Accessor"
    },
    {
      "bufferView": 3,
      "componentType": 5125,
      "count": 12,
      "type": "SCALAR",
      "name": "Indices Accessor"
    },
    {
      "bufferView": 4,
      "componentType": 5126,
      "count": 6,
      "type": "VEC4",
      "name": "weights accessor"
    },
    {
      "bufferView": 5,
      "componentType": 5123,
      "count": 6,
      "type": "VEC4",
      "name": "joint indices accessor"
    },
    {
      "bufferView": 6,
      "componentType": 5126,
      "count": 2,
      "type": "MAT4",
      "name": "IBM"
    },
    {
      "bufferView": 7,
      "componentType": 5126,
      "count": 5,
      "type": "SCALAR",
      "max": [
        4.0
      ],
      "min": [
        0.0
      ],
      "name": "Animation Sampler Input"
    },
    {
      "bufferView": 8,
      "componentType": 5126,
      "count": 5,
      "type": "VEC4",
      "name": "Animation Sampler Output"
    }
  ],
  "animations": [
    {
      "channels": [
        {
          "sampler": 0,
          "target": {
            "node": 0,
            "path": "rotation"
          }
        }
      ],
      "samplers": [
        {
          "input": 7,
          "output": 8
        }
      ]
    }
  ],
  "asset": {
    "generator": "glTF Asset Generator",
    "version": "2.0"
  },
  "buffers": [
    {
      "uri": "Animation_Skin_00.bin",
      "byteLength": 636
    }
  ],
  "bufferViews": [
    {
      "buffer": 0,
      "byteLength": 72,
      "name": "Positions"
    },
    {
      "buffer": 0,
      "byteOffset": 72,
      "byteLength": 72,
      "name": "Normals"
    },
    {
      "buffer": 0,
      "byteOffset": 144,
      "byteLength": 72,
      "name": "Colors"
    },
    {
      "buffer": 0,
      "byteOffset": 216,
      "byteLength": 48,
      "name": "Indices"
    },
    {
      "buffer": 0,
      "byteOffset": 264,
      "byteLength": 96,
      "name": "weights buffer view"
    },
    {
      "buffer": 0,
      "byteOffset": 360,
      "byteLength": 48,
      "name": "joint indices buffer view"
    },
    {
      "buffer": 0,
      "byteOffset": 408,
      "byteLength": 128,
      "name": "Inverse Bind Matrix"
    },
    {
      "buffer": 0,
      "byteOffset": 536,
      "byteLength": 20,
      "name": "Animation Sampler Input"
    },
    {
      "buffer": 0,
      "byteOffset": 556,
      "byteLength": 80,
      "name": "Animation Sampler Output"
    }
  ],
  "meshes": [
    {
      "primitives": [
        {
          "attributes": {
            "POSITION": 0,
            "NORMAL": 1,
            "COLOR_0": 2,
            "WEIGHTS_0": 4,
            "JOINTS_0": 5
          },
          "indices": 3
        }
      ]
    }
  ],
  "nodes": [
    {
      "skin": 0,
      "mesh": 0
    },
    {
      "children": [
        2
      ],
      "rotation": [
        0.0,
        0.0,
        0.707106769,
        0.707106769
      ],
      "translation": [
        0.0,
        -0.5,
        0.0
      ],
      "name": "rootJoint"
    },
    {
      "rotation": [
        0.0,
        0.0,
        -0.707106769,
        0.707106769
      ],
      "translation": [
        0.5,
        0.0,
        0.0
      ],
      "name": "midJoint"
    }
  ],
  "scene": 0,
  "scenes": [
    {
      "nodes": [
        0,
        1
      ]
    }
  ],
  "skins": [
    {
      "inverseBindMatrices": 6,
      "joints": [
        1,
        2
      ]
    }
  ]
}