{
  "accessors": [
    {
      "bufferView": 0,
      "componentType": 5126,
      "count": 15,
      "type": "VEC3",
      "max": [
        0.375,
        0.75,
        0.0
      ],
      "min": [
        -0.375,
        -0.25,
        0.0
      ],
      "name": "Positions Accessor"
    },
    {
      "bufferView": 1,
      "componentType": 5126,
      "count": 15,
      "type": "VEC3",
      "name": "Colors Accessor"
    },
    {
      "bufferView": 2,
      "componentType": 5125,
      "count": 36,
      "type": "SCALAR",
      "name": "Indices Accessor"
    },
    {
      "bufferView": 3,
      "componentType": 5126,
      "count": 15,
      "type": "VEC4",
      "name": "weights accessor"
    },
    {
      "bufferView": 4,
      "componentType": 5123,
      "count": 15,
      "type": "VEC4",
      "name": "joint indices accessor"
    },
    {
      "bufferView": 5,
      "componentType": 5126,
      "count": 3,
      "type": "MAT4",
      "name": "IBM"
    }
  ],
  "asset": {
    "generator": "glTF Asset Generator",
    "version": "2.0"
  },
  "buffers": [
    {
      "uri": "Animation_Skin_09.bin",
      "byteLength": 1056
    }
  ],
  "bufferViews": [
    {
      "buffer": 0,
      "byteLength": 180,
      "name": "Positions"
    },
    {
      "buffer": 0,
      "byteOffset": 180,
      "byteLength": 180,
      "name": "Colors"
    },
    {
      "buffer": 0,
      "byteOffset": 360,
      "byteLength": 144,
      "name": "Indices"
    },
    {
      "buffer": 0,
      "byteOffset": 504,
      "byteLength": 240,
      "name": "weights buffer view"
    },
    {
      "buffer": 0,
      "byteOffset": 744,
      "byteLength": 120,
      "name": "joint indices buffer view"
    },
    {
      "buffer": 0,
      "byteOffset": 864,
      "byteLength": 192,
      "name": "Inverse Bind Matrix"
    }
  ],
  "materials": [
    {
      "doubleSided": true
    }
  ],
  "meshes": [
    {
      "primitives": [
        {
          "attributes": {
            "POSITION": 0,
            "COLOR_0": 1,
            "WEIGHTS_0": 3,
            "JOINTS_0": 4
          },
          "indices": 2,
          "material": 0
        }
      ]
    }
  ],
  "nodes": [
    {
      "skin": 0,
      "mesh": 0,
      "name": "plane"
    },
    {
      "children": [
        2,
        3
      ],
      "translation": [
        0.0,
        0.25,
        0.0
      ],
      "name": "joint0"
    },
    {
      "translation": [
        -0.1875,
        0.25,
        0.0
      ],
      "name": "joint1"
    },
    {
      "translation": [
        0.1875,
        0.25,
        0.0
      ],
      "name": "joint2"
    }
  ],
  "scene": 0,
  "scenes": [
    {
      "nodes": [
        0,
        1
      ]
    }
  ],
  "skins": [
    {
      "inverseBindMatrices": 5,
      "joints": [
        1,
        2,
        3
      ]
    }
  ]
}