{
  "accessors": [
    {
      "bufferView": 0,
      "componentType": 5126,
      "count": 6,
      "type": "VEC3",
      "max": [
        -1.0,
        0.0,
        0.0
      ],
      "min": [
        0.0,
        1.0,
        0.0
      ],
      "name": "Positions Accessor"
    },
    {
      "bufferView": 1,
      "componentType": 5126,
      "count": 6,
      "type": "VEC3",
      "name": "Normals Accessor"
    },
    {
      "bufferView": 2,
      "componentType": 5126,
      "count": 6,
      "type": "VEC2",
      "name": "UV Accessor 1"
    }
  ],
  "asset": {
    "generator": "glTF Asset Generator",
    "version": "2.0",
    "extras": {
      "Attributes": "AlphaMode_MASK - AlphaCutoff - DoubleSided - EmissiveFactor - EmissiveTexture - NormalTexture - Scale - OcclusionTexture - Strength - BaseColorFactor - BaseColorTexture - MetallicFactor - RoughnessFactor - MetallicRoughnessTexture"
    }
  },
  "buffers": [
    {
      "uri": "Materials_1.bin",
      "byteLength": 192
    }
  ],
  "bufferViews": [
    {
      "buffer": 0,
      "byteLength": 72,
      "name": "Positions"
    },
    {
      "buffer": 0,
      "byteOffset": 72,
      "byteLength": 72,
      "name": "Normals"
    },
    {
      "buffer": 0,
      "byteOffset": 144,
      "byteLength": 48,
      "name": "Texture Coords 1"
    }
  ],
  "images": [
    {
      "uri": "UVmap2017.png"
    }
  ],
  "materials": [
    {
      "pbrMetallicRoughness": {
        "baseColorFactor": [
          1.0,
          0.0,
          0.0,
          0.8
        ],
        "baseColorTexture": {
          "index": 0
        },
        "metallicFactor": 0.5,
        "roughnessFactor": 0.5,
        "metallicRoughnessTexture": {
          "index": 0
        }
      },
      "normalTexture": {
        "index": 0
      },
      "occlusionTexture": {
        "index": 0
      },
      "emissiveTexture": {
        "index": 0
      },
      "emissiveFactor": [
        0.0,
        0.0,
        1.0
      ],
      "alphaMode": "MASK",
      "alphaCutoff": 0.2,
      "doubleSided": true
    }
  ],
  "meshes": [
    {
      "primitives": [
        {
          "attributes": {
            "POSITION": 0,
            "NORMAL": 1,
            "TEXCOORD_0": 2
          },
          "material": 0
        }
      ]
    }
  ],
  "nodes": [
    {
      "mesh": 0
    }
  ],
  "scene": 0,
  "scenes": [
    {
      "nodes": [
        0
      ]
    }
  ],
  "textures": [
    {
      "source": 0
    }
  ]
}