{
  "accessors": [
    {
      "bufferView": 0,
      "componentType": 5126,
      "count": 24,
      "type": "VEC3",
      "max": [
        -0.099999994,
        0.3,
        0.3
      ],
      "min": [
        -0.700000048,
        -0.3,
        -0.3
      ],
      "name": "Positions Accessor"
    },
    {
      "bufferView": 1,
      "componentType": 5126,
      "count": 24,
      "type": "VEC3",
      "name": "Normals Accessor"
    },
    {
      "bufferView": 2,
      "componentType": 5126,
      "count": 24,
      "type": "VEC2",
      "name": "UV Accessor 0"
    },
    {
      "bufferView": 3,
      "componentType": 5125,
      "count": 36,
      "type": "SCALAR",
      "name": "Indices Accessor"
    },
    {
      "bufferView": 4,
      "componentType": 5126,
      "count": 24,
      "type": "VEC3",
      "max": [
        0.700000048,
        0.3,
        0.3
      ],
      "min": [
        0.099999994,
        -0.3,
        -0.3
      ],
      "name": "Positions Accessor"
    },
    {
      "bufferView": 5,
      "componentType": 5126,
      "count": 24,
      "type": "VEC3",
      "name": "Normals Accessor"
    },
    {
      "bufferView": 6,
      "componentType": 5126,
      "count": 24,
      "type": "VEC2",
      "name": "UV Accessor 0"
    },
    {
      "bufferView": 7,
      "componentType": 5125,
      "count": 36,
      "type": "SCALAR",
      "name": "Indices Accessor"
    },
    {
      "bufferView": 8,
      "componentType": 5126,
      "count": 3,
      "type": "SCALAR",
      "max": [
        2.0
      ],
      "min": [
        0.0
      ],
      "name": "Animation Sampler Input"
    },
    {
      "bufferView": 9,
      "componentType": 5126,
      "count": 3,
      "type": "VEC3",
      "name": "Animation Sampler Output"
    },
    {
      "bufferView": 8,
      "componentType": 5126,
      "count": 3,
      "type": "SCALAR",
      "max": [
        2.0
      ],
      "min": [
        0.0
      ],
      "sparse": {
        "count": 1,
        "indices": {
          "bufferView": 10,
          "componentType": 5125
        },
        "values": {
          "bufferView": 11
        }
      },
      "name": "Sparse Animation Sampler Input"
    }
  ],
  "animations": [
    {
      "channels": [
        {
          "sampler": 0,
          "target": {
            "node": 0,
            "path": "translation"
          }
        },
        {
          "sampler": 1,
          "target": {
            "node": 1,
            "path": "translation"
          }
        }
      ],
      "samplers": [
        {
          "input": 8,
          "output": 9
        },
        {
          "input": 10,
          "output": 9
        }
      ]
    }
  ],
  "asset": {
    "generator": "glTF Asset Generator",
    "version": "2.0"
  },
  "buffers": [
    {
      "uri": "Accessor_Sparse_00.bin",
      "byteLength": 1880
    }
  ],
  "bufferViews": [
    {
      "buffer": 0,
      "byteLength": 288,
      "name": "Positions"
    },
    {
      "buffer": 0,
      "byteOffset": 288,
      "byteLength": 288,
      "name": "Normals"
    },
    {
      "buffer": 0,
      "byteOffset": 576,
      "byteLength": 192,
      "name": "Texture Coords 0"
    },
    {
      "buffer": 0,
      "byteOffset": 768,
      "byteLength": 144,
      "name": "Indices"
    },
    {
      "buffer": 0,
      "byteOffset": 912,
      "byteLength": 288,
      "name": "Positions"
    },
    {
      "buffer": 0,
      "byteOffset": 1200,
      "byteLength": 288,
      "name": "Normals"
    },
    {
      "buffer": 0,
      "byteOffset": 1488,
      "byteLength": 192,
      "name": "Texture Coords 0"
    },
    {
      "buffer": 0,
      "byteOffset": 1680,
      "byteLength": 144,
      "name": "Indices"
    },
    {
      "buffer": 0,
      "byteOffset": 1824,
      "byteLength": 12,
      "name": "Animation Sampler Input"
    },
    {
      "buffer": 0,
      "byteOffset": 1836,
      "byteLength": 36,
      "name": "Animation Sampler Output"
    },
    {
      "buffer": 0,
      "byteOffset": 1872,
      "byteLength": 4,
      "name": "Animation Sampler Input Sparse Indices"
    },
    {
      "buffer": 0,
      "byteOffset": 1876,
      "byteLength": 4,
      "name": "Animation Sampler Input Sparse Values"
    }
  ],
  "images": [
    {
      "uri": "Textures/BaseColor_Cube.png"
    }
  ],
  "materials": [
    {
      "pbrMetallicRoughness": {
        "baseColorTexture": {
          "index": 0
        }
      }
    }
  ],
  "meshes": [
    {
      "primitives": [
        {
          "attributes": {
            "POSITION": 0,
            "NORMAL": 1,
            "TEXCOORD_0": 2
          },
          "indices": 3,
          "material": 0
        }
      ]
    },
    {
      "primitives": [
        {
          "attributes": {
            "POSITION": 4,
            "NORMAL": 5,
            "TEXCOORD_0": 6
          },
          "indices": 7,
          "material": 0
        }
      ]
    }
  ],
  "nodes": [
    {
      "mesh": 0
    },
    {
      "mesh": 1
    }
  ],
  "scene": 0,
  "scenes": [
    {
      "nodes": [
        0,
        1
      ]
    }
  ],
  "textures": [
    {
      "source": 0
    }
  ]
}