{
  "accessors": [
    {
      "bufferView": 0,
      "componentType": 5126,
      "count": 5,
      "type": "VEC3",
      "max": [
        0.5,
        0.5,
        0.0
      ],
      "min": [
        -0.5,
        -0.5,
        0.0
      ],
      "name": "Positions Accessor"
    },
    {
      "bufferView": 1,
      "componentType": 5126,
      "count": 5,
      "type": "VEC3",
      "name": "Colors Accessor"
    },
    {
      "bufferView": 2,
      "componentType": 5125,
      "count": 6,
      "type": "SCALAR",
      "name": "Indices Accessor"
    },
    {
      "bufferView": 3,
      "componentType": 5126,
      "count": 5,
      "type": "VEC3",
      "max": [
        0.5,
        0.5,
        0.0
      ],
      "min": [
        -0.5,
        -0.5,
        0.0
      ],
      "name": "Positions Accessor"
    },
    {
      "bufferView": 4,
      "componentType": 5126,
      "count": 5,
      "type": "VEC3",
      "name": "Colors Accessor"
    },
    {
      "bufferView": 2,
      "componentType": 5125,
      "count": 6,
      "type": "SCALAR",
      "sparse": {
        "count": 2,
        "indices": {
          "bufferView": 5,
          "componentType": 5125
        },
        "values": {
          "bufferView": 6
        }
      },
      "name": "Sparse Indices Accessor"
    }
  ],
  "asset": {
    "generator": "glTF Asset Generator",
    "version": "2.0"
  },
  "buffers": [
    {
      "uri": "Accessor_Sparse_03.bin",
      "byteLength": 280
    }
  ],
  "bufferViews": [
    {
      "buffer": 0,
      "byteLength": 60,
      "name": "Positions"
    },
    {
      "buffer": 0,
      "byteOffset": 60,
      "byteLength": 60,
      "name": "Colors"
    },
    {
      "buffer": 0,
      "byteOffset": 120,
      "byteLength": 24,
      "name": "Indices"
    },
    {
      "buffer": 0,
      "byteOffset": 144,
      "byteLength": 60,
      "name": "Positions"
    },
    {
      "buffer": 0,
      "byteOffset": 204,
      "byteLength": 60,
      "name": "Colors"
    },
    {
      "buffer": 0,
      "byteOffset": 264,
      "byteLength": 8,
      "name": "Indices Accessor Sparse Indices"
    },
    {
      "buffer": 0,
      "byteOffset": 272,
      "byteLength": 8,
      "name": "Indices Accessor Sparse Values"
    }
  ],
  "meshes": [
    {
      "primitives": [
        {
          "attributes": {
            "POSITION": 0,
            "COLOR_0": 1
          },
          "indices": 2
        }
      ]
    },
    {
      "primitives": [
        {
          "attributes": {
            "POSITION": 3,
            "COLOR_0": 4
          },
          "indices": 5
        }
      ]
    }
  ],
  "nodes": [
    {
      "mesh": 0,
      "translation": [
        -0.6,
        0.0,
        0.0
      ]
    },
    {
      "mesh": 1,
      "translation": [
        0.6,
        0.0,
        0.0
      ]
    }
  ],
  "scene": 0,
  "scenes": [
    {
      "nodes": [
        0,
        1
      ]
    }
  ]
}