{
  "accessors": [
    {
      "bufferView": 0,
      "componentType": 5126,
      "count": 4,
      "type": "VEC3",
      "max": [
        -0.100000024,
        0.5,
        0.0
      ],
      "min": [
        -1.1,
        -0.5,
        0.0
      ],
      "name": "Positions Accessor"
    },
    {
      "bufferView": 1,
      "componentType": 5126,
      "count": 4,
      "type": "VEC2",
      "name": "UV Accessor 0"
    },
    {
      "bufferView": 2,
      "componentType": 5125,
      "count": 6,
      "type": "SCALAR",
      "name": "Indices Accessor"
    },
    {
      "bufferView": 3,
      "componentType": 5126,
      "count": 4,
      "type": "VEC3",
      "max": [
        1.1,
        0.5,
        0.0
      ],
      "min": [
        0.100000024,
        -0.5,
        0.0
      ],
      "name": "Positions Accessor"
    },
    {
      "bufferView": 4,
      "componentType": 5126,
      "count": 4,
      "type": "VEC2",
      "name": "UV Accessor 0"
    },
    {
      "bufferView": 5,
      "componentType": 5125,
      "count": 6,
      "type": "SCALAR",
      "name": "Indices Accessor"
    },
    {
      "bufferView": 6,
      "componentType": 5126,
      "count": 3,
      "type": "SCALAR",
      "max": [
        2.0
      ],
      "min": [
        0.0
      ],
      "name": "Animation Sampler Input"
    },
    {
      "bufferView": 7,
      "componentType": 5126,
      "count": 3,
      "type": "VEC3",
      "name": "Animation Sampler Output"
    },
    {
      "bufferView": 8,
      "componentType": 5126,
      "count": 3,
      "type": "SCALAR",
      "max": [
        2.0
      ],
      "min": [
        0.0
      ],
      "name": "Animation Sampler Input"
    },
    {
      "bufferView": 9,
      "componentType": 5126,
      "count": 3,
      "type": "VEC3",
      "sparse": {
        "count": 1,
        "indices": {
          "bufferView": 10,
          "componentType": 5125
        },
        "values": {
          "bufferView": 11
        }
      },
      "name": "Animation Sampler Output"
    }
  ],
  "animations": [
    {
      "channels": [
        {
          "sampler": 0,
          "target": {
            "node": 0,
            "path": "translation"
          }
        },
        {
          "sampler": 1,
          "target": {
            "node": 1,
            "path": "translation"
          }
        }
      ],
      "samplers": [
        {
          "input": 6,
          "output": 7
        },
        {
          "input": 8,
          "output": 9
        }
      ]
    }
  ],
  "asset": {
    "generator": "glTF Asset Generator",
    "version": "2.0"
  },
  "buffers": [
    {
      "uri": "Accessor_Sparse_01.bin",
      "byteLength": 320
    }
  ],
  "bufferViews": [
    {
      "buffer": 0,
      "byteLength": 48,
      "name": "Positions"
    },
    {
      "buffer": 0,
      "byteOffset": 48,
      "byteLength": 32,
      "name": "Texture Coords 0"
    },
    {
      "buffer": 0,
      "byteOffset": 80,
      "byteLength": 24,
      "name": "Indices"
    },
    {
      "buffer": 0,
      "byteOffset": 104,
      "byteLength": 48,
      "name": "Positions"
    },
    {
      "buffer": 0,
      "byteOffset": 152,
      "byteLength": 32,
      "name": "Texture Coords 0"
    },
    {
      "buffer": 0,
      "byteOffset": 184,
      "byteLength": 24,
      "name": "Indices"
    },
    {
      "buffer": 0,
      "byteOffset": 208,
      "byteLength": 12,
      "name": "Animation Sampler Input"
    },
    {
      "buffer": 0,
      "byteOffset": 220,
      "byteLength": 36,
      "name": "Animation Sampler Output"
    },
    {
      "buffer": 0,
      "byteOffset": 256,
      "byteLength": 12,
      "name": "Animation Sampler Input"
    },
    {
      "buffer": 0,
      "byteOffset": 268,
      "byteLength": 36,
      "name": "Animation Sampler Output"
    },
    {
      "buffer": 0,
      "byteOffset": 304,
      "byteLength": 4,
      "name": "Sparse Indices"
    },
    {
      "buffer": 0,
      "byteOffset": 308,
      "byteLength": 12,
      "name": "Sparse Values"
    }
  ],
  "images": [
    {
      "uri": "Textures/BaseColor_A.png"
    },
    {
      "uri": "Textures/BaseColor_B.png"
    }
  ],
  "materials": [
    {
      "pbrMetallicRoughness": {
        "baseColorTexture": {
          "index": 0
        }
      }
    },
    {
      "pbrMetallicRoughness": {
        "baseColorTexture": {
          "index": 1
        }
      }
    }
  ],
  "meshes": [
    {
      "primitives": [
        {
          "attributes": {
            "POSITION": 0,
            "TEXCOORD_0": 1
          },
          "indices": 2,
          "material": 0
        }
      ]
    },
    {
      "primitives": [
        {
          "attributes": {
            "POSITION": 3,
            "TEXCOORD_0": 4
          },
          "indices": 5,
          "material": 1
        }
      ]
    }
  ],
  "nodes": [
    {
      "mesh": 0
    },
    {
      "mesh": 1
    }
  ],
  "scene": 0,
  "scenes": [
    {
      "nodes": [
        0,
        1
      ]
    }
  ],
  "textures": [
    {
      "source": 0
    },
    {
      "source": 1
    }
  ]
}