{
  "accessors": [
    {
      "bufferView": 0,
      "componentType": 5126,
      "count": 24,
      "type": "VEC3",
      "max": [
        0.3,
        0.3,
        0.3
      ],
      "min": [
        -0.3,
        -0.3,
        -0.3
      ],
      "name": "Positions Accessor"
    },
    {
      "bufferView": 1,
      "componentType": 5126,
      "count": 24,
      "type": "VEC3",
      "name": "Normals Accessor"
    },
    {
      "bufferView": 2,
      "componentType": 5126,
      "count": 24,
      "type": "VEC2",
      "name": "UV Accessor 0"
    },
    {
      "bufferView": 3,
      "componentType": 5125,
      "count": 36,
      "type": "SCALAR",
      "name": "Indices Accessor"
    },
    {
      "bufferView": 0,
      "componentType": 5126,
      "count": 24,
      "type": "VEC3",
      "max": [
        0.4,
        0.3,
        0.4
      ],
      "min": [
        -0.3,
        -0.4,
        -0.3
      ],
      "sparse": {
        "count": 3,
        "indices": {
          "bufferView": 4,
          "componentType": 5125
        },
        "values": {
          "bufferView": 5
        }
      },
      "name": "Sparse Positions Accessor"
    },
    {
      "bufferView": 6,
      "componentType": 5126,
      "count": 24,
      "type": "VEC3",
      "name": "Normals Accessor"
    },
    {
      "bufferView": 7,
      "componentType": 5126,
      "count": 24,
      "type": "VEC2",
      "name": "UV Accessor 0"
    },
    {
      "bufferView": 8,
      "componentType": 5125,
      "count": 36,
      "type": "SCALAR",
      "name": "Indices Accessor"
    }
  ],
  "asset": {
    "generator": "glTF Asset Generator",
    "version": "2.0"
  },
  "buffers": [
    {
      "uri": "Accessor_Sparse_02.bin",
      "byteLength": 1584
    }
  ],
  "bufferViews": [
    {
      "buffer": 0,
      "byteLength": 288,
      "byteStride": 12,
      "name": "Positions"
    },
    {
      "buffer": 0,
      "byteOffset": 288,
      "byteLength": 288,
      "name": "Normals"
    },
    {
      "buffer": 0,
      "byteOffset": 576,
      "byteLength": 192,
      "name": "Texture Coords 0"
    },
    {
      "buffer": 0,
      "byteOffset": 768,
      "byteLength": 144,
      "name": "Indices"
    },
    {
      "buffer": 0,
      "byteOffset": 912,
      "byteLength": 12,
      "name": "Positions Accessor Sparse Indices"
    },
    {
      "buffer": 0,
      "byteOffset": 924,
      "byteLength": 36,
      "name": "Positions Accessor Sparse Values"
    },
    {
      "buffer": 0,
      "byteOffset": 960,
      "byteLength": 288,
      "name": "Normals"
    },
    {
      "buffer": 0,
      "byteOffset": 1248,
      "byteLength": 192,
      "name": "Texture Coords 0"
    },
    {
      "buffer": 0,
      "byteOffset": 1440,
      "byteLength": 144,
      "name": "Indices"
    }
  ],
  "images": [
    {
      "uri": "Textures/BaseColor_Cube.png"
    }
  ],
  "materials": [
    {
      "pbrMetallicRoughness": {
        "baseColorTexture": {
          "index": 0
        }
      }
    }
  ],
  "meshes": [
    {
      "primitives": [
        {
          "attributes": {
            "POSITION": 0,
            "NORMAL": 1,
            "TEXCOORD_0": 2
          },
          "indices": 3,
          "material": 0
        }
      ]
    },
    {
      "primitives": [
        {
          "attributes": {
            "POSITION": 4,
            "NORMAL": 5,
            "TEXCOORD_0": 6
          },
          "indices": 7,
          "material": 0
        }
      ]
    }
  ],
  "nodes": [
    {
      "mesh": 0,
      "translation": [
        -0.4,
        0.0,
        0.0
      ]
    },
    {
      "mesh": 1,
      "translation": [
        0.4,
        0.0,
        0.0
      ]
    }
  ],
  "scene": 0,
  "scenes": [
    {
      "nodes": [
        0,
        1
      ]
    }
  ],
  "textures": [
    {
      "source": 0
    }
  ]
}