{
  "accessors": [
    {
      "bufferView": 0,
      "componentType": 5126,
      "count": 4,
      "type": "VEC3",
      "max": [
        0.5,
        0.5,
        0.0
      ],
      "min": [
        -0.5,
        -0.5,
        0.0
      ],
      "name": "Positions Accessor"
    },
    {
      "bufferView": 0,
      "byteOffset": 12,
      "componentType": 5123,
      "normalized": true,
      "count": 4,
      "type": "VEC3",
      "name": "Colors Accessor"
    },
    {
      "bufferView": 0,
      "byteOffset": 20,
      "componentType": 5126,
      "count": 4,
      "type": "VEC2",
      "name": "UV Accessor 0"
    },
    {
      "bufferView": 1,
      "componentType": 5125,
      "count": 6,
      "type": "SCALAR",
      "name": "Indices Accessor"
    }
  ],
  "asset": {
    "generator": "glTF Asset Generator",
    "version": "2.0"
  },
  "buffers": [
    {
      "uri": "Buffer_Interleaved_02.bin",
      "byteLength": 136
    }
  ],
  "bufferViews": [
    {
      "buffer": 0,
      "byteLength": 112,
      "byteStride": 28,
      "name": "Interleaved attributes"
    },
    {
      "buffer": 0,
      "byteOffset": 112,
      "byteLength": 24,
      "name": "Indices"
    }
  ],
  "images": [
    {
      "uri": "Textures/BaseColor_Grey.png"
    }
  ],
  "materials": [
    {
      "pbrMetallicRoughness": {
        "baseColorTexture": {
          "index": 0
        }
      }
    }
  ],
  "meshes": [
    {
      "primitives": [
        {
          "attributes": {
            "POSITION": 0,
            "COLOR_0": 1,
            "TEXCOORD_0": 2
          },
          "indices": 3,
          "material": 0
        }
      ]
    }
  ],
  "nodes": [
    {
      "mesh": 0
    }
  ],
  "scene": 0,
  "scenes": [
    {
      "nodes": [
        0
      ]
    }
  ],
  "textures": [
    {
      "source": 0
    }
  ]
}