{
  "accessors": [
    {
      "bufferView": 0,
      "componentType": 5126,
      "count": 144,
      "type": "VEC3",
      "max": [
        2.5,
        7.5,
        2.5
      ],
      "min": [
        -7.5,
        -2.5,
        -7.5
      ],
      "name": "Positions Accessor"
    },
    {
      "bufferView": 1,
      "componentType": 5126,
      "count": 144,
      "type": "VEC3",
      "name": "Normals Accessor"
    },
    {
      "bufferView": 2,
      "componentType": 5126,
      "count": 144,
      "type": "VEC2",
      "name": "UV Accessor 0"
    },
    {
      "bufferView": 3,
      "componentType": 5126,
      "count": 18,
      "type": "VEC3",
      "max": [
        7.5,
        -1.0,
        7.5
      ],
      "min": [
        -7.5,
        -1.0,
        -7.5
      ],
      "name": "Positions Accessor"
    },
    {
      "bufferView": 4,
      "componentType": 5126,
      "count": 18,
      "type": "VEC3",
      "name": "Normals Accessor"
    },
    {
      "bufferView": 5,
      "componentType": 5126,
      "count": 18,
      "type": "VEC2",
      "name": "UV Accessor 0"
    }
  ],
  "asset": {
    "generator": "glTF Asset Generator",
    "version": "2.0",
    "extras": {
      "Attributes": ""
    }
  },
  "buffers": [
    {
      "uri": "Node_NegativeScale_00.bin",
      "byteLength": 5184
    }
  ],
  "bufferViews": [
    {
      "buffer": 0,
      "byteLength": 1728,
      "name": "Positions"
    },
    {
      "buffer": 0,
      "byteOffset": 1728,
      "byteLength": 1728,
      "name": "Normals"
    },
    {
      "buffer": 0,
      "byteOffset": 3456,
      "byteLength": 1152,
      "name": "Texture Coords 0"
    },
    {
      "buffer": 0,
      "byteOffset": 4608,
      "byteLength": 216,
      "name": "Positions"
    },
    {
      "buffer": 0,
      "byteOffset": 4824,
      "byteLength": 216,
      "name": "Normals"
    },
    {
      "buffer": 0,
      "byteOffset": 5040,
      "byteLength": 144,
      "name": "Texture Coords 0"
    }
  ],
  "materials": [
    {},
    {}
  ],
  "meshes": [
    {
      "primitives": [
        {
          "attributes": {
            "POSITION": 0,
            "NORMAL": 1,
            "TEXCOORD_0": 2
          },
          "material": 0
        }
      ]
    },
    {
      "primitives": [
        {
          "attributes": {
            "POSITION": 3,
            "NORMAL": 4,
            "TEXCOORD_0": 5
          },
          "material": 1
        }
      ]
    }
  ],
  "nodes": [
    {
      "mesh": 0,
      "name": "Node0"
    },
    {
      "mesh": 1,
      "name": "Node1"
    }
  ],
  "scene": 0,
  "scenes": [
    {
      "nodes": [
        0,
        1
      ]
    }
  ]
}