{
  "accessors": [
    {
      "bufferView": 0,
      "componentType": 5126,
      "count": 6,
      "type": "VEC3",
      "max": [
        -0.5,
        -0.5,
        0.0
      ],
      "min": [
        0.5,
        0.5,
        0.0
      ],
      "name": "Positions Accessor"
    },
    {
      "bufferView": 1,
      "componentType": 5123,
      "normalized": true,
      "count": 6,
      "type": "VEC3",
      "name": "Colors Accessor"
    },
    {
      "bufferView": 2,
      "componentType": 5123,
      "normalized": true,
      "count": 6,
      "type": "VEC2",
      "name": "UV Accessor 1"
    },
    {
      "bufferView": 3,
      "componentType": 5123,
      "normalized": true,
      "count": 6,
      "type": "VEC2",
      "name": "UV Accessor 2"
    }
  ],
  "asset": {
    "generator": "glTF Asset Generator",
    "version": "2.0",
    "extras": {
      "Attributes": "TexCoord0_Short - TexCoord1_Short - Color_Vector3_Short"
    }
  },
  "buffers": [
    {
      "uri": "Primitive_Attribute_12.bin",
      "byteLength": 156
    }
  ],
  "bufferViews": [
    {
      "buffer": 0,
      "byteLength": 72,
      "name": "Positions"
    },
    {
      "buffer": 0,
      "byteOffset": 72,
      "byteLength": 72,
      "name": "Colors"
    },
    {
      "buffer": 0,
      "byteOffset": 108,
      "byteLength": 24,
      "name": "Texture Coords 1"
    },
    {
      "buffer": 0,
      "byteOffset": 132,
      "byteLength": 24,
      "name": "Texture Coords 2"
    }
  ],
  "images": [
    {
      "uri": "TexturePlane_BaseColor.png"
    },
    {
      "uri": "TexturePlane_OcclusionRoughnessMetallic.png"
    }
  ],
  "materials": [
    {
      "pbrMetallicRoughness": {
        "baseColorTexture": {
          "index": 0
        },
        "metallicRoughnessTexture": {
          "index": 1,
          "texCoord": 1
        }
      },
      "normalTexture": {
        "index": 0
      }
    }
  ],
  "meshes": [
    {
      "primitives": [
        {
          "attributes": {
            "POSITION": 0,
            "COLOR_0": 1,
            "TEXCOORD_0": 2,
            "TEXCOORD_1": 3
          },
          "material": 0
        }
      ]
    }
  ],
  "nodes": [
    {
      "mesh": 0
    }
  ],
  "scene": 0,
  "scenes": [
    {
      "nodes": [
        0
      ]
    }
  ],
  "textures": [
    {
      "source": 0
    },
    {
      "source": 1
    },
    {}
  ]
}