{
  "accessors": [
    {
      "bufferView": 0,
      "componentType": 5126,
      "count": 24,
      "type": "VEC3",
      "max": [
        0.5,
        0.5,
        0.5
      ],
      "min": [
        -0.5,
        -0.5,
        -0.5
      ],
      "name": "Positions Accessor"
    },
    {
      "bufferView": 1,
      "componentType": 5126,
      "count": 24,
      "type": "VEC3",
      "name": "Normals Accessor"
    },
    {
      "bufferView": 2,
      "componentType": 5126,
      "count": 24,
      "type": "VEC3",
      "name": "Colors Accessor"
    },
    {
      "bufferView": 3,
      "componentType": 5126,
      "count": 24,
      "type": "VEC2",
      "name": "UV Accessor 0"
    },
    {
      "bufferView": 4,
      "componentType": 5125,
      "count": 36,
      "type": "SCALAR",
      "name": "Indices Accessor"
    },
    {
      "bufferView": 5,
      "componentType": 5126,
      "count": 24,
      "type": "VEC3",
      "max": [
        -0.700000048,
        0.5,
        0.5
      ],
      "min": [
        -1.7,
        -0.5,
        -0.5
      ],
      "name": "Positions Accessor"
    },
    {
      "bufferView": 6,
      "componentType": 5126,
      "count": 24,
      "type": "VEC3",
      "name": "Normals Accessor"
    },
    {
      "bufferView": 7,
      "componentType": 5126,
      "count": 24,
      "type": "VEC2",
      "name": "UV Accessor 0"
    },
    {
      "bufferView": 8,
      "componentType": 5125,
      "count": 36,
      "type": "SCALAR",
      "name": "Indices Accessor"
    }
  ],
  "asset": {
    "generator": "glTF Asset Generator",
    "version": "2.0",
    "extras": {
      "Attributes": "Mesh0_Vec3Color - Mesh1_None"
    }
  },
  "buffers": [
    {
      "uri": "Node_Material_01.bin",
      "byteLength": 2112
    }
  ],
  "bufferViews": [
    {
      "buffer": 0,
      "byteLength": 288,
      "name": "Positions"
    },
    {
      "buffer": 0,
      "byteOffset": 288,
      "byteLength": 288,
      "name": "Normals"
    },
    {
      "buffer": 0,
      "byteOffset": 576,
      "byteLength": 288,
      "name": "Colors"
    },
    {
      "buffer": 0,
      "byteOffset": 864,
      "byteLength": 192,
      "name": "Texture Coords 0"
    },
    {
      "buffer": 0,
      "byteOffset": 1056,
      "byteLength": 144,
      "name": "Indices"
    },
    {
      "buffer": 0,
      "byteOffset": 1200,
      "byteLength": 288,
      "name": "Positions"
    },
    {
      "buffer": 0,
      "byteOffset": 1488,
      "byteLength": 288,
      "name": "Normals"
    },
    {
      "buffer": 0,
      "byteOffset": 1776,
      "byteLength": 192,
      "name": "Texture Coords 0"
    },
    {
      "buffer": 0,
      "byteOffset": 1968,
      "byteLength": 144,
      "name": "Indices"
    }
  ],
  "meshes": [
    {
      "primitives": [
        {
          "attributes": {
            "POSITION": 0,
            "NORMAL": 1,
            "COLOR_0": 2,
            "TEXCOORD_0": 3
          },
          "indices": 4
        }
      ]
    },
    {
      "primitives": [
        {
          "attributes": {
            "POSITION": 5,
            "NORMAL": 6,
            "TEXCOORD_0": 7
          },
          "indices": 8
        }
      ]
    }
  ],
  "nodes": [
    {
      "mesh": 0,
      "name": "Node_0"
    },
    {
      "mesh": 1,
      "name": "Node_1"
    }
  ],
  "scene": 0,
  "scenes": [
    {
      "nodes": [
        0,
        1
      ]
    }
  ]
}