{
  "accessors": [
    {
      "bufferView": 0,
      "componentType": 5126,
      "count": 24,
      "type": "VEC3",
      "max": [
        0.3,
        0.3,
        0.3
      ],
      "min": [
        -0.3,
        -0.3,
        -0.3
      ],
      "name": "Positions Accessor"
    },
    {
      "bufferView": 1,
      "componentType": 5126,
      "count": 24,
      "type": "VEC3",
      "name": "Normals Accessor"
    },
    {
      "bufferView": 2,
      "componentType": 5126,
      "count": 24,
      "type": "VEC2",
      "name": "UV Accessor 0"
    },
    {
      "bufferView": 3,
      "componentType": 5125,
      "count": 36,
      "type": "SCALAR",
      "name": "Indices Accessor"
    },
    {
      "bufferView": 4,
      "componentType": 5126,
      "count": 5,
      "type": "SCALAR",
      "max": [
        4.0
      ],
      "min": [
        0.0
      ],
      "name": "Animation Sampler Input"
    },
    {
      "bufferView": 5,
      "componentType": 5120,
      "normalized": true,
      "count": 5,
      "type": "VEC4",
      "name": "Animation Sampler Output"
    }
  ],
  "animations": [
    {
      "channels": [
        {
          "sampler": 0,
          "target": {
            "node": 0,
            "path": "rotation"
          }
        }
      ],
      "samplers": [
        {
          "input": 4,
          "output": 5
        }
      ]
    }
  ],
  "asset": {
    "generator": "glTF Asset Generator",
    "version": "2.0"
  },
  "buffers": [
    {
      "uri": "Animation_SamplerType_01.bin",
      "byteLength": 952
    }
  ],
  "bufferViews": [
    {
      "buffer": 0,
      "byteLength": 288,
      "name": "Positions"
    },
    {
      "buffer": 0,
      "byteOffset": 288,
      "byteLength": 288,
      "name": "Normals"
    },
    {
      "buffer": 0,
      "byteOffset": 576,
      "byteLength": 192,
      "name": "Texture Coords 0"
    },
    {
      "buffer": 0,
      "byteOffset": 768,
      "byteLength": 144,
      "name": "Indices"
    },
    {
      "buffer": 0,
      "byteOffset": 912,
      "byteLength": 20,
      "name": "Animation Sampler Input"
    },
    {
      "buffer": 0,
      "byteOffset": 932,
      "byteLength": 20,
      "name": "Animation Sampler Output"
    }
  ],
  "images": [
    {
      "uri": "Textures/BaseColor_Cube.png"
    }
  ],
  "materials": [
    {
      "pbrMetallicRoughness": {
        "baseColorTexture": {
          "index": 0
        }
      }
    }
  ],
  "meshes": [
    {
      "primitives": [
        {
          "attributes": {
            "POSITION": 0,
            "NORMAL": 1,
            "TEXCOORD_0": 2
          },
          "indices": 3,
          "material": 0
        }
      ]
    }
  ],
  "nodes": [
    {
      "mesh": 0
    }
  ],
  "scene": 0,
  "scenes": [
    {
      "nodes": [
        0
      ]
    }
  ],
  "textures": [
    {
      "source": 0
    }
  ]
}