{
  "accessors": [
    {
      "bufferView": 0,
      "componentType": 5126,
      "count": 10,
      "type": "VEC3",
      "max": [
        0.25,
        0.0,
        0.4
      ],
      "min": [
        -0.25,
        0.0,
        -0.4
      ],
      "name": "Positions Accessor"
    },
    {
      "bufferView": 1,
      "componentType": 5125,
      "count": 24,
      "type": "SCALAR",
      "name": "Indices Accessor"
    },
    {
      "bufferView": 2,
      "componentType": 5126,
      "count": 10,
      "type": "VEC4",
      "name": "weights accessor"
    },
    {
      "bufferView": 3,
      "componentType": 5123,
      "count": 10,
      "type": "VEC4",
      "name": "joint indices accessor"
    },
    {
      "bufferView": 4,
      "componentType": 5126,
      "count": 5,
      "type": "MAT4",
      "name": "IBM"
    }
  ],
  "asset": {
    "generator": "glTF Asset Generator",
    "version": "2.0"
  },
  "buffers": [
    {
      "uri": "Animation_Skin_08.bin",
      "byteLength": 776
    }
  ],
  "bufferViews": [
    {
      "buffer": 0,
      "byteLength": 120,
      "name": "Positions"
    },
    {
      "buffer": 0,
      "byteOffset": 120,
      "byteLength": 96,
      "name": "Indices"
    },
    {
      "buffer": 0,
      "byteOffset": 216,
      "byteLength": 160,
      "name": "weights buffer view"
    },
    {
      "buffer": 0,
      "byteOffset": 376,
      "byteLength": 80,
      "name": "joint indices buffer view"
    },
    {
      "buffer": 0,
      "byteOffset": 456,
      "byteLength": 320,
      "name": "Inverse Bind Matrix"
    }
  ],
  "materials": [
    {
      "pbrMetallicRoughness": {
        "baseColorFactor": [
          0.8,
          0.8,
          0.8,
          1.0
        ]
      },
      "doubleSided": true
    }
  ],
  "meshes": [
    {
      "primitives": [
        {
          "attributes": {
            "POSITION": 0,
            "WEIGHTS_0": 2,
            "JOINTS_0": 3
          },
          "indices": 1,
          "material": 0
        }
      ]
    }
  ],
  "nodes": [
    {
      "skin": 0,
      "mesh": 0,
      "name": "plane"
    },
    {
      "children": [
        2
      ],
      "rotation": [
        -0.7071067,
        0.0,
        0.0,
        0.70710677
      ],
      "translation": [
        0.0,
        -0.4,
        0.0
      ],
      "name": "joint0"
    },
    {
      "children": [
        3
      ],
      "rotation": [
        -0.087155744,
        0.0,
        0.0,
        0.9961947
      ],
      "translation": [
        0.0,
        0.0,
        0.2
      ],
      "name": "joint1"
    },
    {
      "children": [
        4
      ],
      "rotation": [
        -0.087155744,
        0.0,
        0.0,
        0.9961947
      ],
      "translation": [
        0.0,
        0.0,
        0.2
      ],
      "name": "joint2"
    },
    {
      "children": [
        5
      ],
      "rotation": [
        -0.087155744,
        0.0,
        0.0,
        0.9961947
      ],
      "translation": [
        0.0,
        0.0,
        0.2
      ],
      "name": "joint3"
    },
    {
      "rotation": [
        -0.087155744,
        0.0,
        0.0,
        0.9961947
      ],
      "translation": [
        0.0,
        0.0,
        0.2
      ],
      "name": "joint4"
    }
  ],
  "scene": 0,
  "scenes": [
    {
      "nodes": [
        0,
        1
      ]
    }
  ],
  "skins": [
    {
      "inverseBindMatrices": 4,
      "joints": [
        1,
        2,
        3,
        4,
        5
      ],
      "name": "skinC"
    }
  ]
}