{
  "accessors": [
    {
      "bufferView": 0,
      "componentType": 5126,
      "count": 13,
      "type": "VEC3",
      "max": [
        0.375,
        0.0,
        0.5
      ],
      "min": [
        -0.375,
        0.0,
        -0.25
      ],
      "name": "Positions Accessor"
    },
    {
      "bufferView": 1,
      "componentType": 5125,
      "count": 30,
      "type": "SCALAR",
      "name": "Indices Accessor"
    },
    {
      "bufferView": 2,
      "componentType": 5126,
      "count": 13,
      "type": "VEC4",
      "name": "weights accessor"
    },
    {
      "bufferView": 3,
      "componentType": 5123,
      "count": 13,
      "type": "VEC4",
      "name": "joint indices accessor"
    },
    {
      "bufferView": 4,
      "componentType": 5126,
      "count": 4,
      "type": "MAT4",
      "name": "IBM"
    }
  ],
  "asset": {
    "generator": "glTF Asset Generator",
    "version": "2.0"
  },
  "buffers": [
    {
      "uri": "Animation_Skin_10.bin",
      "byteLength": 844
    }
  ],
  "bufferViews": [
    {
      "buffer": 0,
      "byteLength": 156,
      "name": "Positions"
    },
    {
      "buffer": 0,
      "byteOffset": 156,
      "byteLength": 120,
      "name": "Indices"
    },
    {
      "buffer": 0,
      "byteOffset": 276,
      "byteLength": 208,
      "name": "weights buffer view"
    },
    {
      "buffer": 0,
      "byteOffset": 484,
      "byteLength": 104,
      "name": "joint indices buffer view"
    },
    {
      "buffer": 0,
      "byteOffset": 588,
      "byteLength": 256,
      "name": "Inverse Bind Matrix"
    }
  ],
  "materials": [
    {
      "pbrMetallicRoughness": {
        "baseColorFactor": [
          0.8,
          0.8,
          0.8,
          1.0
        ]
      },
      "doubleSided": true
    }
  ],
  "meshes": [
    {
      "primitives": [
        {
          "attributes": {
            "POSITION": 0,
            "WEIGHTS_0": 2,
            "JOINTS_0": 3
          },
          "indices": 1,
          "material": 0
        }
      ]
    }
  ],
  "nodes": [
    {
      "skin": 0,
      "mesh": 0,
      "name": "plane"
    },
    {
      "children": [
        2
      ],
      "rotation": [
        -0.7071067,
        0.0,
        0.0,
        0.70710677
      ],
      "translation": [
        0.0,
        -0.25,
        0.0
      ],
      "name": "joint0"
    },
    {
      "children": [
        3,
        4
      ],
      "rotation": [
        -0.1305262,
        0.0,
        0.0,
        0.9914449
      ],
      "translation": [
        0.0,
        0.0,
        0.25
      ],
      "name": "joint1"
    },
    {
      "rotation": [
        -0.1305262,
        0.0,
        0.0,
        0.9914449
      ],
      "translation": [
        -0.1875,
        0.0,
        0.25
      ],
      "name": "joint2"
    },
    {
      "rotation": [
        -0.1305262,
        0.0,
        0.0,
        0.9914449
      ],
      "translation": [
        0.1875,
        0.0,
        0.25
      ],
      "name": "joint3"
    }
  ],
  "scene": 0,
  "scenes": [
    {
      "nodes": [
        0,
        1
      ]
    }
  ],
  "skins": [
    {
      "inverseBindMatrices": 4,
      "joints": [
        1,
        2,
        3,
        4
      ],
      "name": "skinE"
    }
  ]
}