{
  "accessors": [
    {
      "bufferView": 0,
      "componentType": 5126,
      "count": 6,
      "type": "VEC3",
      "max": [
        0.25,
        0.0,
        0.2
      ],
      "min": [
        -0.25,
        0.0,
        -0.2
      ],
      "name": "Positions Accessor"
    },
    {
      "bufferView": 1,
      "componentType": 5125,
      "count": 12,
      "type": "SCALAR",
      "name": "Indices Accessor"
    },
    {
      "bufferView": 2,
      "componentType": 5126,
      "count": 6,
      "type": "VEC4",
      "name": "weights accessor"
    },
    {
      "bufferView": 3,
      "componentType": 5123,
      "count": 6,
      "type": "VEC4",
      "name": "joint indices accessor"
    },
    {
      "bufferView": 4,
      "componentType": 5126,
      "count": 2,
      "type": "MAT4",
      "name": "IBM"
    }
  ],
  "asset": {
    "generator": "glTF Asset Generator",
    "version": "2.0"
  },
  "buffers": [
    {
      "uri": "Animation_Skin_02.bin",
      "byteLength": 392
    }
  ],
  "bufferViews": [
    {
      "buffer": 0,
      "byteLength": 72,
      "name": "Positions"
    },
    {
      "buffer": 0,
      "byteOffset": 72,
      "byteLength": 48,
      "name": "Indices"
    },
    {
      "buffer": 0,
      "byteOffset": 120,
      "byteLength": 96,
      "name": "weights buffer view"
    },
    {
      "buffer": 0,
      "byteOffset": 216,
      "byteLength": 48,
      "name": "joint indices buffer view"
    },
    {
      "buffer": 0,
      "byteOffset": 264,
      "byteLength": 128,
      "name": "Inverse Bind Matrix"
    }
  ],
  "materials": [
    {
      "pbrMetallicRoughness": {
        "baseColorFactor": [
          0.8,
          0.8,
          0.8,
          1.0
        ]
      },
      "doubleSided": true
    }
  ],
  "meshes": [
    {
      "primitives": [
        {
          "attributes": {
            "POSITION": 0,
            "WEIGHTS_0": 2,
            "JOINTS_0": 3
          },
          "indices": 1,
          "material": 0
        }
      ]
    }
  ],
  "nodes": [
    {
      "children": [
        1
      ],
      "rotation": [
        0.0,
        0.38268346,
        0.0,
        0.9238795
      ],
      "name": "jointParent"
    },
    {
      "skin": 0,
      "mesh": 0,
      "rotation": [
        0.0,
        0.38268346,
        0.0,
        0.9238795
      ],
      "name": "plane"
    },
    {
      "children": [
        3
      ],
      "rotation": [
        -0.7071067,
        0.0,
        0.0,
        0.70710677
      ],
      "translation": [
        0.0,
        -0.2,
        0.0
      ],
      "name": "joint0"
    },
    {
      "rotation": [
        -0.25881904,
        0.0,
        0.0,
        0.9659258
      ],
      "translation": [
        0.0,
        0.0,
        0.2
      ],
      "name": "joint1"
    }
  ],
  "scene": 0,
  "scenes": [
    {
      "nodes": [
        0,
        2
      ]
    }
  ],
  "skins": [
    {
      "inverseBindMatrices": 4,
      "joints": [
        2,
        3
      ],
      "name": "skinA"
    }
  ]
}