{
  "accessors": [
    {
      "bufferView": 0,
      "componentType": 5126,
      "count": 4,
      "type": "VEC3",
      "max": [
        0.5,
        0.5,
        0.0
      ],
      "min": [
        -0.5,
        -0.5,
        0.0
      ],
      "name": "Positions Accessor"
    },
    {
      "bufferView": 1,
      "componentType": 5126,
      "count": 4,
      "type": "VEC3",
      "name": "Colors Accessor"
    },
    {
      "bufferView": 2,
      "componentType": 5126,
      "count": 4,
      "type": "VEC2",
      "name": "UV Accessor 0"
    },
    {
      "bufferView": 3,
      "componentType": 5125,
      "count": 6,
      "type": "SCALAR",
      "name": "Indices Accessor"
    },
    {
      "bufferView": 4,
      "componentType": 5126,
      "count": 4,
      "type": "VEC3",
      "max": [
        0.5,
        0.5,
        0.0
      ],
      "min": [
        -0.5,
        -0.5,
        0.0
      ],
      "name": "Positions Accessor"
    },
    {
      "bufferView": 5,
      "componentType": 5126,
      "count": 4,
      "type": "VEC3",
      "name": "Colors Accessor"
    },
    {
      "bufferView": 6,
      "componentType": 5126,
      "count": 4,
      "type": "VEC2",
      "name": "UV Accessor 0"
    }
  ],
  "asset": {
    "generator": "glTF Asset Generator",
    "version": "2.0"
  },
  "buffers": [
    {
      "uri": "Instancing_04.bin",
      "byteLength": 280
    }
  ],
  "bufferViews": [
    {
      "buffer": 0,
      "byteLength": 48,
      "name": "Positions"
    },
    {
      "buffer": 0,
      "byteOffset": 48,
      "byteLength": 48,
      "name": "Colors"
    },
    {
      "buffer": 0,
      "byteOffset": 96,
      "byteLength": 32,
      "name": "Texture Coords 0"
    },
    {
      "buffer": 0,
      "byteOffset": 128,
      "byteLength": 24,
      "name": "Indices"
    },
    {
      "buffer": 0,
      "byteOffset": 152,
      "byteLength": 48,
      "name": "Positions"
    },
    {
      "buffer": 0,
      "byteOffset": 200,
      "byteLength": 48,
      "name": "Colors"
    },
    {
      "buffer": 0,
      "byteOffset": 248,
      "byteLength": 32,
      "name": "Texture Coords 0"
    }
  ],
  "meshes": [
    {
      "primitives": [
        {
          "attributes": {
            "POSITION": 0,
            "COLOR_0": 1,
            "TEXCOORD_0": 2
          },
          "indices": 3
        }
      ]
    },
    {
      "primitives": [
        {
          "attributes": {
            "POSITION": 4,
            "COLOR_0": 5,
            "TEXCOORD_0": 6
          },
          "indices": 3
        }
      ]
    }
  ],
  "nodes": [
    {
      "mesh": 0,
      "translation": [
        -0.6,
        0.0,
        0.0
      ]
    },
    {
      "mesh": 1,
      "translation": [
        0.6,
        0.0,
        0.0
      ]
    }
  ],
  "scene": 0,
  "scenes": [
    {
      "nodes": [
        0,
        1
      ]
    }
  ]
}