{
  "accessors": [
    {
      "bufferView": 0,
      "componentType": 5126,
      "count": 6,
      "type": "VEC3",
      "max": [
        0.25,
        0.0,
        0.2
      ],
      "min": [
        -0.25,
        0.0,
        -0.2
      ],
      "name": "Positions Accessor"
    },
    {
      "bufferView": 1,
      "componentType": 5126,
      "count": 6,
      "type": "VEC2",
      "name": "UV Accessor 0"
    },
    {
      "bufferView": 2,
      "componentType": 5125,
      "count": 12,
      "type": "SCALAR",
      "name": "Indices Accessor"
    },
    {
      "bufferView": 3,
      "componentType": 5126,
      "count": 6,
      "type": "VEC4",
      "name": "weights accessor"
    },
    {
      "bufferView": 4,
      "componentType": 5123,
      "count": 6,
      "type": "VEC4",
      "name": "joint indices accessor"
    },
    {
      "bufferView": 5,
      "componentType": 5126,
      "count": 2,
      "type": "MAT4",
      "name": "IBM"
    },
    {
      "bufferView": 6,
      "componentType": 5126,
      "count": 6,
      "type": "VEC3",
      "max": [
        0.25,
        0.0,
        0.2
      ],
      "min": [
        -0.25,
        0.0,
        -0.2
      ],
      "name": "Positions Accessor"
    },
    {
      "bufferView": 7,
      "componentType": 5126,
      "count": 6,
      "type": "VEC2",
      "name": "UV Accessor 0"
    },
    {
      "bufferView": 8,
      "componentType": 5125,
      "count": 12,
      "type": "SCALAR",
      "name": "Indices Accessor"
    },
    {
      "bufferView": 9,
      "componentType": 5126,
      "count": 6,
      "type": "VEC4",
      "name": "weights accessor"
    },
    {
      "bufferView": 10,
      "componentType": 5123,
      "count": 6,
      "type": "VEC4",
      "name": "joint indices accessor"
    }
  ],
  "asset": {
    "generator": "glTF Asset Generator",
    "version": "2.0"
  },
  "buffers": [
    {
      "uri": "Instancing_10.bin",
      "byteLength": 752
    }
  ],
  "bufferViews": [
    {
      "buffer": 0,
      "byteLength": 72,
      "name": "Positions"
    },
    {
      "buffer": 0,
      "byteOffset": 72,
      "byteLength": 48,
      "name": "Texture Coords 0"
    },
    {
      "buffer": 0,
      "byteOffset": 120,
      "byteLength": 48,
      "name": "Indices"
    },
    {
      "buffer": 0,
      "byteOffset": 168,
      "byteLength": 96,
      "name": "weights buffer view"
    },
    {
      "buffer": 0,
      "byteOffset": 264,
      "byteLength": 48,
      "name": "joint indices buffer view"
    },
    {
      "buffer": 0,
      "byteOffset": 312,
      "byteLength": 128,
      "name": "Inverse Bind Matrix"
    },
    {
      "buffer": 0,
      "byteOffset": 440,
      "byteLength": 72,
      "name": "Positions"
    },
    {
      "buffer": 0,
      "byteOffset": 512,
      "byteLength": 48,
      "name": "Texture Coords 0"
    },
    {
      "buffer": 0,
      "byteOffset": 560,
      "byteLength": 48,
      "name": "Indices"
    },
    {
      "buffer": 0,
      "byteOffset": 608,
      "byteLength": 96,
      "name": "weights buffer view"
    },
    {
      "buffer": 0,
      "byteOffset": 704,
      "byteLength": 48,
      "name": "joint indices buffer view"
    }
  ],
  "images": [
    {
      "uri": "Textures/BaseColor_A.png"
    },
    {
      "uri": "Textures/BaseColor_B.png"
    }
  ],
  "materials": [
    {
      "pbrMetallicRoughness": {
        "baseColorTexture": {
          "index": 0
        }
      }
    },
    {
      "pbrMetallicRoughness": {
        "baseColorTexture": {
          "index": 1
        }
      }
    }
  ],
  "meshes": [
    {
      "primitives": [
        {
          "attributes": {
            "POSITION": 0,
            "TEXCOORD_0": 1,
            "WEIGHTS_0": 3,
            "JOINTS_0": 4
          },
          "indices": 2,
          "material": 0
        }
      ]
    },
    {
      "primitives": [
        {
          "attributes": {
            "POSITION": 6,
            "TEXCOORD_0": 7,
            "WEIGHTS_0": 9,
            "JOINTS_0": 10
          },
          "indices": 8,
          "material": 1
        }
      ]
    }
  ],
  "nodes": [
    {
      "skin": 0,
      "mesh": 0,
      "name": "plane0"
    },
    {
      "children": [
        2
      ],
      "rotation": [
        -0.7071067,
        0.0,
        0.0,
        0.70710677
      ],
      "translation": [
        -0.3,
        -0.2,
        0.0
      ],
      "name": "joint0"
    },
    {
      "rotation": [
        -0.25881904,
        0.0,
        0.0,
        0.9659258
      ],
      "translation": [
        0.0,
        0.0,
        0.2
      ],
      "name": "joint1"
    },
    {
      "skin": 1,
      "mesh": 1,
      "name": "plane1"
    },
    {
      "children": [
        5
      ],
      "rotation": [
        -0.7071067,
        0.0,
        0.0,
        0.70710677
      ],
      "translation": [
        0.3,
        -0.2,
        0.0
      ],
      "name": "joint0"
    },
    {
      "rotation": [
        -0.25881904,
        0.0,
        0.0,
        0.9659258
      ],
      "translation": [
        0.0,
        0.0,
        0.2
      ],
      "name": "joint1"
    }
  ],
  "scene": 0,
  "scenes": [
    {
      "nodes": [
        0,
        1,
        3,
        4
      ]
    }
  ],
  "skins": [
    {
      "inverseBindMatrices": 5,
      "joints": [
        1,
        2
      ],
      "name": "skinA"
    },
    {
      "inverseBindMatrices": 5,
      "joints": [
        4,
        5
      ],
      "name": "skinA"
    }
  ],
  "textures": [
    {
      "source": 0
    },
    {
      "source": 1
    }
  ]
}