{
  "accessors": [
    {
      "bufferView": 0,
      "componentType": 5126,
      "count": 6,
      "type": "VEC3",
      "max": [
        0.25,
        0.5,
        0.0
      ],
      "min": [
        -0.25,
        -0.5,
        0.0
      ],
      "name": "Positions Accessor"
    },
    {
      "bufferView": 1,
      "componentType": 5126,
      "count": 6,
      "type": "VEC3",
      "name": "Colors Accessor"
    },
    {
      "bufferView": 2,
      "componentType": 5125,
      "count": 12,
      "type": "SCALAR",
      "name": "Indices Accessor"
    },
    {
      "bufferView": 3,
      "componentType": 5123,
      "normalized": true,
      "count": 6,
      "type": "VEC4",
      "name": "weights accessor"
    },
    {
      "bufferView": 4,
      "componentType": 5121,
      "count": 6,
      "type": "VEC4",
      "name": "joint indices accessor"
    },
    {
      "bufferView": 5,
      "componentType": 5126,
      "count": 2,
      "type": "MAT4",
      "name": "IBM"
    },
    {
      "bufferView": 6,
      "componentType": 5126,
      "count": 3,
      "type": "SCALAR",
      "max": [
        2.0
      ],
      "min": [
        0.0
      ],
      "name": "Animation Sampler Input"
    },
    {
      "bufferView": 7,
      "componentType": 5126,
      "count": 3,
      "type": "VEC4",
      "name": "Animation Sampler Output"
    }
  ],
  "animations": [
    {
      "channels": [
        {
          "sampler": 0,
          "target": {
            "node": 2,
            "path": "rotation"
          }
        }
      ],
      "samplers": [
        {
          "input": 6,
          "output": 7
        }
      ]
    }
  ],
  "asset": {
    "generator": "glTF Asset Generator",
    "version": "2.0"
  },
  "buffers": [
    {
      "uri": "Animation_SkinType_02.bin",
      "byteLength": 452
    }
  ],
  "bufferViews": [
    {
      "buffer": 0,
      "byteLength": 72,
      "name": "Positions"
    },
    {
      "buffer": 0,
      "byteOffset": 72,
      "byteLength": 72,
      "name": "Colors"
    },
    {
      "buffer": 0,
      "byteOffset": 144,
      "byteLength": 48,
      "name": "Indices"
    },
    {
      "buffer": 0,
      "byteOffset": 192,
      "byteLength": 48,
      "name": "weights buffer view"
    },
    {
      "buffer": 0,
      "byteOffset": 240,
      "byteLength": 24,
      "name": "joint indices buffer view"
    },
    {
      "buffer": 0,
      "byteOffset": 264,
      "byteLength": 128,
      "name": "Inverse Bind Matrix"
    },
    {
      "buffer": 0,
      "byteOffset": 392,
      "byteLength": 12,
      "name": "Animation Sampler Input"
    },
    {
      "buffer": 0,
      "byteOffset": 404,
      "byteLength": 48,
      "name": "Animation Sampler Output"
    }
  ],
  "materials": [
    {
      "doubleSided": true
    }
  ],
  "meshes": [
    {
      "primitives": [
        {
          "attributes": {
            "POSITION": 0,
            "COLOR_0": 1,
            "WEIGHTS_0": 3,
            "JOINTS_0": 4
          },
          "indices": 2,
          "material": 0
        }
      ]
    }
  ],
  "nodes": [
    {
      "skin": 0,
      "mesh": 0,
      "name": "plane"
    },
    {
      "children": [
        2
      ],
      "translation": [
        0.0,
        -0.5,
        0.0
      ],
      "name": "rootNode"
    },
    {
      "translation": [
        0.0,
        0.5,
        0.0
      ],
      "name": "midNode"
    }
  ],
  "scene": 0,
  "scenes": [
    {
      "nodes": [
        0,
        1
      ]
    }
  ],
  "skins": [
    {
      "inverseBindMatrices": 5,
      "joints": [
        1,
        2
      ]
    }
  ]
}